<?xml version="1.0" encoding="UTF-8" standalone="no"?>
<svg
   width="420"
   height="420"
   viewBox="90 90 510 510"
   fill="none"
   version="1.1"
   id="svg20"
   sodipodi:docname="favicon.svg"
   inkscape:version="1.1 (c68e22c387, 2021-05-23)"
   xmlns:inkscape="http://www.inkscape.org/namespaces/inkscape"
   xmlns:sodipodi="http://sodipodi.sourceforge.net/DTD/sodipodi-0.dtd"
   xmlns="http://www.w3.org/2000/svg"
   xmlns:svg="http://www.w3.org/2000/svg"
   xmlns:rdf="http://www.w3.org/1999/02/22-rdf-syntax-ns#"
   xmlns:cc="http://creativecommons.org/ns#"
   xmlns:dc="http://purl.org/dc/elements/1.1/">


    <path
      stroke="darkred"
      fill="darkred"
      stroke-width="15"
      stroke-linecap="round"
      stroke-linejoin="round"
      d="M 96 265 L 300 520 L 504 265"
    />
  <path fill="cornsilk" d="M 300 500 L 100 250 C 150 150 250 150 300 200 C 350 150 450 150 500 250 L 300 500" />
  <path stroke="lightgray" stroke-width="3" d="M 300 200 L 300 500" />
  <path stroke="black" stroke-width="10" stroke-linecap="round" d="M 300 500 L 100 250 C 150 150 250 150 300 200 C 350 150 450 150 500 250 L 300 500" />

  <path fill="black" d="M 160 260 L 150 250 C 180 210 230 200 280 230 L 280 235 C 230 210 190 220 160 260" />
  <g transform="translate(55, 80), scale(0.8,0.8)">
    <path fill="black" d="M 160 260 L 150 250 C 180 210 230 200 280 230 L 280 235 C 230 210 190 220 160 260" />
    <g transform="translate(60, 90), scale(0.8,0.8)">
      <path fill="black" d="M 160 260 L 150 250 C 180 210 230 200 280 230 L 280 235 C 230 210 190 220 160 260" />
    </g>
  </g>
  <g transform="translate(600), scale(-1, 1)">
    <path fill="black" d="M 160 260 L 150 250 C 180 210 230 200 280 230 L 280 235 C 230 210 190 220 160 260" />
    <g transform="translate(55, 80), scale(0.8,0.8)">
      <path fill="black" d="M 160 260 L 150 250 C 180 210 230 200 280 230 L 280 235 C 230 210 190 220 160 260" />
      <g transform="translate(60, 90), scale(0.8,0.8)">
        <path fill="black" d="M 160 260 L 150 250 C 180 210 230 200 280 230 L 280 235 C 230 210 190 220 160 260" />
      </g>
    </g>
  </g>
</svg>
